<svg width="175" height="171" viewBox="0 0 175 171" fill="none" xmlns="http://www.w3.org/2000/svg">
<path d="M70.576 22.0418L68.9424 22.7976L71.8649 29.1143L62.8435 25.6194L60.7198 26.6019L70.8018 30.5317L67.8125 39.4073L69.7728 38.5003L72.4696 30.4211L75.073 36.0481L76.7066 35.2922L70.576 22.0418Z" fill="black"/>
<path d="M43.7063 37.7437L43.0699 38.4624L47.3176 47.7539L48.564 46.3464L45.4112 39.9212L52.197 42.2438L53.4301 40.8513L43.7063 37.7437Z" fill="black"/>
<path d="M30.7707 54.6409L30.2072 56.2448L35.3962 58.0679C36.6294 58.48 37.3857 59.8268 36.9405 61.1543C36.4565 62.5318 35.2953 62.7597 33.8235 62.2426L28.7288 60.4526L28.1653 62.0565L33.5053 63.9327C35.6186 64.6752 37.4005 64.0082 38.1297 61.9325C38.4612 60.9891 38.3342 59.8421 37.7171 58.8834L38.9202 59.2001L39.4506 57.6905L30.7707 54.6409Z" fill="black"/>
<path d="M24.9615 83.4923L24.666 80.6652C24.5294 79.4312 24.9541 78.5232 25.7126 78.4762C26.1717 78.4477 26.572 78.7636 26.7552 79.1329C26.2808 79.8837 26.0171 80.8018 26.0777 81.7799C26.2213 84.0955 27.9882 85.7694 30.0243 85.6432C30.9226 85.5875 31.72 85.1974 32.3029 84.5801L32.5341 86.3693L33.7643 86.1728L33.2319 83.0798C33.4193 82.5472 33.5019 81.9409 33.4635 81.3221C33.3237 79.0664 31.553 77.3326 29.517 77.4589C28.6786 77.5108 27.9199 77.8785 27.3332 78.4359C27.0043 77.6547 26.352 77.1541 25.6334 77.1987C24.4557 77.2717 23.6804 78.3417 23.5512 79.8125C23.1471 79.4368 22.6906 79.1845 22.1317 79.2192C20.5348 79.3182 19.5596 81.0418 19.7081 83.4372C19.8454 85.653 21.0049 87.2243 22.6218 87.124C23.9592 87.0411 25.221 86.0612 24.9615 83.4923ZM32.2047 81.3801C32.2926 82.7974 31.2953 83.8411 29.9179 83.9264C28.5805 84.0094 27.402 83.1005 27.3141 81.6833C27.2263 80.266 28.2822 79.1986 29.6197 79.1157C30.9571 79.0328 32.1156 79.9428 32.2047 81.3801ZM20.8858 83.3642C20.7893 81.8072 21.3337 80.8918 22.232 80.8361C22.711 80.8064 23.3073 81.05 23.6177 81.5317L23.8113 83.3632C23.9976 85.075 23.2002 85.465 22.5215 85.5071C21.6632 85.5603 20.9724 84.7615 20.8858 83.3642Z" fill="black"/>
<circle cx="28.9367" cy="107.066" r="2.89367" fill="black"/>
<circle cx="92.5974" cy="23.1494" r="2.89367" fill="black"/>
<circle cx="141.79" cy="118.64" r="2.89367" fill="black"/>
<path d="M50.5739 117.591L51.6908 116.56L45.8711 110.255L35.143 120.158L40.9627 126.463L42.0796 125.432L37.4808 120.45L41.3312 116.896L45.4144 121.319L46.546 120.274L42.4628 115.851L45.9751 112.609L50.5739 117.591Z" fill="black"/>
<path d="M55.9605 139.106C57.2429 139.667 58.7065 139.566 59.9916 138.775L59.4014 140.372L60.8671 141.014L67.0837 126.815L65.5264 126.133L62.3178 133.462C62.0274 131.981 61.1012 130.855 59.8188 130.293C57.4554 129.259 54.718 130.374 53.6351 132.848C52.5683 135.284 53.5971 138.071 55.9605 139.106ZM56.8517 137.968C55.0929 137.198 54.4464 135.233 55.2085 133.493C55.9625 131.771 57.8443 130.914 59.5951 131.702C61.3355 132.464 61.9981 134.391 61.236 136.132C60.474 137.872 58.5922 138.73 56.8517 137.968Z" fill="black"/>
<path d="M82.4301 147.22C83.8296 147.184 85.1116 146.47 85.9394 145.209L86.0832 146.906L87.6827 146.864L87.2829 131.369L85.5835 131.413L85.7898 139.411C84.8981 138.193 83.5815 137.567 82.182 137.603C79.6028 137.67 77.5982 139.842 77.6678 142.541C77.7364 145.2 79.8509 147.286 82.4301 147.22ZM82.7539 145.811C80.8345 145.861 79.4152 144.357 79.3662 142.457C79.3178 140.578 80.6576 139.003 82.5775 138.973C84.4768 138.924 85.895 140.388 85.9441 142.288C85.9931 144.187 84.6532 145.762 82.7539 145.811Z" fill="black"/>
<path d="M103.596 132.086C104.157 131.874 104.455 131.248 104.25 130.705C104.052 130.181 103.415 129.909 102.854 130.121C102.293 130.333 102.013 130.952 102.211 131.476C102.416 132.018 103.034 132.298 103.596 132.086ZM107.087 143.765L108.678 143.165L105.427 134.558L103.837 135.159L107.087 143.765Z" fill="black"/>
<path d="M116.343 135.572C118.023 137.634 121.118 137.95 123.289 136.182C124.685 135.045 125.516 133.311 125.319 131.485L123.946 131.985C124.082 133.292 123.47 134.409 122.493 135.205C121.144 136.304 119.319 136.217 118.085 135.081L124.443 129.903C124.335 129.707 124.199 129.508 124.035 129.307C122.38 127.275 119.481 126.851 117.201 128.708C115.03 130.476 114.689 133.54 116.343 135.572ZM117.4 134.272C116.328 132.798 116.542 130.844 117.984 129.669C119.535 128.406 121.368 128.693 122.548 130.079L117.4 134.272Z" fill="black"/>
<path d="M147.605 105.413L147.924 103.642L141.074 102.41L149.114 97.028L149.528 94.725L140.523 100.726L134.971 93.1834L134.589 95.3092L139.657 102.155L133.555 101.057L133.236 102.829L147.605 105.413Z" fill="black"/>
<path d="M137.999 77.6857C137.905 77.0931 137.353 76.6744 136.78 76.7653C136.227 76.8531 135.831 77.4221 135.925 78.0147C136.019 78.6073 136.568 79.0061 137.121 78.9184C137.694 78.8275 138.093 78.2782 137.999 77.6857ZM150.144 76.6298L149.877 74.9508L140.791 76.3923L141.057 78.0713L150.144 76.6298Z" fill="black"/>
<path d="M138.495 62.7482C137.918 61.6051 138.04 60.5583 138.342 59.8686L136.937 59.4795C136.423 60.948 136.704 62.3067 137.271 63.4318C138.604 66.0751 141.477 66.9335 143.835 65.7453C146.192 64.5572 147.104 61.6116 145.835 59.0933C145.259 57.9503 144.29 57.0053 142.777 56.4914L142.262 57.8704C143.059 58.0736 143.937 58.4822 144.54 59.6789C145.404 61.3934 144.811 63.372 143.079 64.2451C141.364 65.1092 139.368 64.4806 138.495 62.7482Z" fill="black"/>
<path d="M135.234 41.9139L133.967 40.7803L131.167 43.9102L131.15 38.2597L129.377 36.6726L129.5 43.4927L123.6 43.8485L125.314 45.3822L130.166 45.028L123.631 52.3309L124.898 53.4645L135.234 41.9139Z" fill="black"/>
<path d="M114.581 26.4399C112.947 25.7842 111.056 26.2535 110.401 27.8868C109.268 30.708 113.601 31.887 112.997 33.3904C112.677 34.1885 111.83 34.3657 111.069 34.0602C110.382 33.7845 109.941 33.3271 109.611 32.8068L108.596 33.6708C109.152 34.4329 109.779 34.9648 110.837 35.3895C112.285 35.9707 113.897 35.4973 114.478 34.0496C115.566 31.3398 111.192 30.4244 111.937 28.5684C112.228 27.8445 113.165 27.3369 114.167 27.7393C115.15 28.1342 115.711 28.7254 116.259 29.8291L117.385 29.0097C116.711 27.7907 115.936 26.9838 114.581 26.4399Z" fill="black"/>
<path d="M84.1193 72.7942L94.9232 72.7942L94.9232 83.5981" stroke="#292D32" stroke-width="1.5" stroke-miterlimit="10" stroke-linecap="round" stroke-linejoin="round"/>
<path d="M79.7941 87.9232L94.7719 72.9454" stroke="#292D32" stroke-width="1.5" stroke-miterlimit="10" stroke-linecap="round" stroke-linejoin="round"/>
</svg>
